<svg width="58" height="58" viewBox="0 0 58 58" fill="none" xmlns="http://www.w3.org/2000/svg">
<path d="M28.813 0C12.8923 0 0 12.9211 0 28.8418C0 44.7625 12.8923 57.6836 28.813 57.6836C44.7625 57.6836 57.6836 44.7625 57.6836 28.8418C57.6836 12.9211 44.7625 0 28.813 0ZM28.8418 51.9152C16.0937 51.9152 5.76836 41.5899 5.76836 28.8418C5.76836 16.0937 16.0937 5.76836 28.8418 5.76836C41.5899 5.76836 51.9152 16.0937 51.9152 28.8418C51.9152 41.5899 41.5899 51.9152 28.8418 51.9152Z" fill="white"/>
<path d="M30.2839 14.4206H25.9576V31.7257L41.0996 40.8108L43.2627 37.2633L30.2839 29.5625V14.4206Z" fill="white"/>
</svg>
