<svg width="40" height="40" viewBox="0 0 40 40" fill="none" xmlns="http://www.w3.org/2000/svg">
<rect x="0.5" y="0.5" width="39" height="39" fill="#73767A" stroke="#AEAFB0"/>
<path d="M28.9975 20.5C28.9975 21.7265 29.001 22.953 28.9975 24.1829C28.9907 25.9644 28.1616 27.2833 26.6816 28.2152C25.8149 28.7565 24.8522 28.9963 23.8312 28.9963C21.5975 28.9963 19.3673 29.0066 17.1336 28.9929C15.5816 28.9826 14.2455 28.4344 13.1869 27.2833C12.5325 26.5707 12.142 25.7314 12.0289 24.7619C12.0049 24.5563 12.0015 24.3542 12.0015 24.1486C12.0015 21.7059 11.9981 19.2632 12.0015 16.8206C12.0118 15.0356 12.8409 13.7167 14.3209 12.7848C15.1945 12.2401 16.1606 12.0037 17.1884 12.0037C19.4152 12.0037 21.6421 11.9934 23.8689 12.0071C25.4277 12.0174 26.7673 12.569 27.8259 13.7269C28.4734 14.4361 28.8605 15.2755 28.9701 16.2347C29.0147 16.6116 28.9941 16.9884 28.9975 17.3619C29.001 18.4102 28.9975 19.4551 28.9975 20.5ZM13.2725 20.5C13.2725 21.7573 13.2691 23.0112 13.2725 24.2685C13.276 25.1319 13.5912 25.8753 14.1804 26.4919C14.9718 27.3176 15.9585 27.7184 17.0925 27.7253C19.3433 27.739 21.5907 27.7287 23.8415 27.7287C24.5678 27.7287 25.2599 27.5711 25.8902 27.208C27.0687 26.5331 27.7334 25.5395 27.7334 24.1486C27.7334 21.6751 27.7334 19.205 27.7334 16.7315C27.7334 15.875 27.4216 15.135 26.8358 14.5218C26.0512 13.6927 25.0612 13.285 23.9306 13.2781C21.6558 13.261 19.3844 13.2713 17.1096 13.2713C16.4004 13.2713 15.7289 13.4392 15.1123 13.7886C13.9372 14.4669 13.2691 15.4605 13.2725 16.8514C13.2725 18.0676 13.2725 19.2838 13.2725 20.5Z" fill="#A7A7A7"/>
<path d="M20.5115 24.1315C18.2984 24.1315 16.5237 22.3638 16.5272 20.1575C16.5306 18.0094 18.3292 16.2485 20.5252 16.2519C22.7315 16.2519 24.513 18.0231 24.5096 20.2088C24.5061 22.374 22.7144 24.1315 20.5115 24.1315ZM20.5115 22.8639C22.0155 22.8639 23.242 21.6683 23.242 20.1986C23.242 18.722 22.0258 17.5195 20.5252 17.5195C19.0212 17.5195 17.7948 18.7151 17.7948 20.1849C17.7948 21.6614 19.011 22.8639 20.5115 22.8639Z" fill="#A7A7A7"/>
<path d="M24.1328 15.9298C24.1328 15.4434 24.5062 15.0528 24.9721 15.0528C25.438 15.0528 25.8115 15.4468 25.8115 15.9298C25.8115 16.406 25.438 16.7966 24.979 16.8C24.513 16.8034 24.1328 16.4163 24.1328 15.9298Z" fill="#A7A7A7"/>
</svg>
