<svg width="20" height="12" viewBox="0 0 20 12" fill="none" xmlns="http://www.w3.org/2000/svg">
<path d="M18.75 1.5H0.75C0.551088 1.5 0.360322 1.42098 0.21967 1.28033C0.0790176 1.13968 0 0.948913 0 0.750001C0 0.551088 0.0790176 0.360323 0.21967 0.21967C0.360322 0.0790178 0.551088 0 0.75 0H18.75C18.9489 0 19.1397 0.0790178 19.2803 0.21967C19.421 0.360323 19.5 0.551088 19.5 0.750001C19.5 0.948913 19.421 1.13968 19.2803 1.28033C19.1397 1.42098 18.9489 1.5 18.75 1.5Z" fill="#0C1CC1"/>
<path d="M18.75 6.75H0.75C0.551088 6.75 0.360322 6.67098 0.21967 6.53033C0.0790176 6.38968 0 6.19891 0 6C0 5.80109 0.0790176 5.61032 0.21967 5.46967C0.360322 5.32902 0.551088 5.25 0.75 5.25H18.75C18.9489 5.25 19.1397 5.32902 19.2803 5.46967C19.421 5.61032 19.5 5.80109 19.5 6C19.5 6.19891 19.421 6.38968 19.2803 6.53033C19.1397 6.67098 18.9489 6.75 18.75 6.75Z" fill="#0C1CC1"/>
<path d="M18.75 12H0.75C0.551088 12 0.360322 11.921 0.21967 11.7803C0.0790176 11.6397 0 11.4489 0 11.25C0 11.0511 0.0790176 10.8603 0.21967 10.7197C0.360322 10.579 0.551088 10.5 0.75 10.5H18.75C18.9489 10.5 19.1397 10.579 19.2803 10.7197C19.421 10.8603 19.5 11.0511 19.5 11.25C19.5 11.4489 19.421 11.6397 19.2803 11.7803C19.1397 11.921 18.9489 12 18.75 12Z" fill="#0C1CC1"/>
</svg>
