<svg width="66" height="66" viewBox="0 0 66 66" fill="none" xmlns="http://www.w3.org/2000/svg">
<path d="M48.2317 40.6088C47.5693 40.6128 46.9316 40.3577 46.4547 39.8979L35.6914 29.4875C34.0389 27.9064 32.7237 26.0069 31.8251 23.9035C30.9266 21.8001 30.4633 19.5364 30.4633 17.249C30.4633 14.9617 30.9266 12.698 31.8251 10.5946C32.7237 8.49116 34.0389 6.59162 35.6914 5.01052C39.0745 1.79375 43.5639 0 48.2317 0C52.8994 0 57.3888 1.79375 60.7719 5.01052C62.4244 6.59162 63.7397 8.49116 64.6382 10.5946C65.5368 12.698 66 14.9617 66 17.249C66 19.5364 65.5368 21.8001 64.6382 23.9035C63.7397 26.0069 62.4244 27.9064 60.7719 29.4875L50.0086 39.8979C49.5317 40.3577 48.894 40.6128 48.2317 40.6088ZM48.2317 5.0613C44.8724 5.04073 41.6383 6.33469 39.22 8.66684C38.0555 9.77231 37.1282 11.1033 36.4945 12.5787C35.8608 14.0542 35.534 15.6432 35.534 17.249C35.534 18.8549 35.8608 20.4439 36.4945 21.9193C37.1282 23.3948 38.0555 24.7258 39.22 25.8312L48.2317 34.5404L57.2434 25.8312C58.4078 24.7258 59.3351 23.3948 59.9688 21.9193C60.6025 20.4439 60.9293 18.8549 60.9293 17.249C60.9293 15.6432 60.6025 14.0542 59.9688 12.5787C59.3351 11.1033 58.4078 9.77231 57.2434 8.66684C54.822 6.33929 51.5899 5.04611 48.2317 5.0613Z" fill="#AEAFB0"/>
<path d="M20.3081 65.9999C19.8634 66.003 19.4257 65.8892 19.0388 65.6699L1.26927 55.5134C0.881886 55.2897 0.560475 54.9676 0.337586 54.5797C0.114697 54.1917 -0.00175585 53.7518 2.00108e-05 53.3044V7.60041C-0.00175585 7.15299 0.114697 6.71305 0.337586 6.32513C0.560475 5.93721 0.881886 5.61509 1.26927 5.39138C1.65518 5.16853 2.09293 5.05121 2.53853 5.05121C2.98413 5.05121 3.42188 5.16853 3.80778 5.39138L21.5773 15.5478C21.9647 15.7715 22.2861 16.0937 22.509 16.4816C22.7319 16.8695 22.8484 17.3094 22.8466 17.7568V63.4608C22.8484 63.9082 22.7319 64.3482 22.509 64.7361C22.2861 65.124 21.9647 65.4462 21.5773 65.6699C21.1905 65.8892 20.7528 66.003 20.3081 65.9999ZM5.07703 51.8317L17.7696 59.0936V19.2295L5.07703 11.9677V51.8317Z" fill="#AEAFB0"/>
<path d="M20.3081 65.9999C19.8634 66.003 19.4257 65.8892 19.0388 65.6698C18.6514 65.4461 18.33 65.124 18.1071 64.7361C17.8842 64.3482 17.7678 63.9082 17.7696 63.4608V17.7568C17.7678 17.3094 17.8842 16.8695 18.1071 16.4816C18.33 16.0937 18.6514 15.7715 19.0388 15.5478L34.2698 6.83868C34.5611 6.67182 34.8825 6.56439 35.2156 6.52261C35.5486 6.48082 35.8866 6.50551 36.21 6.59524C36.5334 6.68497 36.8359 6.83796 37.0998 7.04536C37.3637 7.25277 37.5839 7.51046 37.7476 7.80354C38.0786 8.38656 38.1655 9.07684 37.9896 9.72377C37.8136 10.3707 37.389 10.9218 36.8084 11.2567L22.8466 19.2295V59.0936L36.8084 51.0954C37.0984 50.9286 37.4184 50.8207 37.7501 50.7777C38.0819 50.7347 38.4188 50.7574 38.7418 50.8447C39.0647 50.9319 39.3673 51.0819 39.6323 51.2861C39.8973 51.4903 40.1194 51.7447 40.2861 52.0348C40.4528 52.3249 40.5607 52.645 40.6037 52.9768C40.6467 53.3086 40.624 53.6457 40.5368 53.9687C40.4495 54.2917 40.2996 54.5944 40.0954 54.8594C39.8912 55.1245 39.6369 55.3467 39.3469 55.5134L21.5773 65.6698C21.1904 65.8892 20.7527 66.003 20.3081 65.9999Z" fill="#AEAFB0"/>
<path d="M55.8471 65.9999C55.4025 66.003 54.9648 65.8892 54.5779 65.6699L36.8083 55.5134C36.4209 55.2897 36.0995 54.9676 35.8766 54.5797C35.6538 54.1918 35.5373 53.7518 35.5391 53.3044V30.4524C35.5391 29.779 35.8065 29.1332 36.2826 28.657C36.7587 28.1808 37.4043 27.9133 38.0776 27.9133C38.7508 27.9133 39.3965 28.1808 39.8726 28.657C40.3486 29.1332 40.6161 29.779 40.6161 30.4524V51.8317L53.3086 59.0936V32.9915C53.3086 32.3181 53.5761 31.6723 54.0521 31.1961C54.5282 30.7199 55.1739 30.4524 55.8471 30.4524C56.5204 30.4524 57.1661 30.7199 57.6421 31.1961C58.1182 31.6723 58.3856 32.3181 58.3856 32.9915V63.4608C58.3874 63.9082 58.271 64.3482 58.0481 64.7361C57.8252 65.124 57.5038 65.4462 57.1164 65.6699C56.7295 65.8892 56.2918 66.003 55.8471 65.9999Z" fill="#AEAFB0"/>
<path d="M48.2316 25.3742C46.7254 25.3742 45.253 24.9274 44.0007 24.0904C42.7483 23.2534 41.7722 22.0638 41.1958 20.6719C40.6194 19.28 40.4686 17.7484 40.7624 16.2708C41.0563 14.7932 41.7816 13.4359 42.8466 12.3706C43.9117 11.3053 45.2686 10.5798 46.7459 10.2859C48.2232 9.99197 49.7544 10.1428 51.1459 10.7194C52.5375 11.2959 53.7269 12.2722 54.5637 13.5249C55.4005 14.7776 55.8471 16.2503 55.8471 17.7569C55.8471 19.7771 55.0448 21.7146 53.6166 23.1431C52.1884 24.5716 50.2514 25.3742 48.2316 25.3742ZM48.2316 15.2177C47.7295 15.2177 47.2388 15.3667 46.8213 15.6457C46.4038 15.9247 46.0785 16.3212 45.8863 16.7852C45.6942 17.2491 45.6439 17.7597 45.7419 18.2522C45.8398 18.7447 46.0816 19.1972 46.4366 19.5523C46.7916 19.9074 47.244 20.1492 47.7364 20.2472C48.2288 20.3451 48.7392 20.2949 49.2031 20.1027C49.6669 19.9105 50.0634 19.5851 50.3423 19.1675C50.6212 18.75 50.7701 18.259 50.7701 17.7569C50.7701 17.0834 50.5027 16.4376 50.0266 15.9614C49.5506 15.4853 48.9049 15.2177 48.2316 15.2177Z" fill="#AEAFB0"/>
</svg>
