<svg width="66" height="66" viewBox="0 0 66 66" fill="none" xmlns="http://www.w3.org/2000/svg">
<path d="M33 0C14.8041 0 0 14.8041 0 33C0 51.1959 14.8041 66 33 66C35.9891 66 38.9498 65.6012 42.0839 64.7109C48.4325 61.9032 51.8969 54.9745 50.3621 48.2149L50.4266 48.1505C51.3934 47.1877 51.8284 45.3307 51.3974 44.0335L51.212 43.4695C50.7769 42.1725 49.3429 40.8189 48.0216 40.4563L43.1434 39.123C41.8221 38.7646 39.9368 39.248 38.9662 40.2188L37.2017 41.9832C30.7886 40.247 25.7573 35.2156 24.025 28.8026L25.7895 27.0381C26.7563 26.0713 27.2397 24.186 26.8812 22.8607L25.5517 17.9824C25.1932 16.6611 23.8315 15.2271 22.5345 14.792L21.9785 14.6066C20.6773 14.1716 18.8203 14.6106 17.8535 15.5815L15.2109 18.2241C14.7397 18.6914 14.4375 20.0328 14.4375 20.0369C14.3488 28.424 17.6361 36.5007 23.5657 42.4344C29.4793 48.348 37.528 51.6312 45.8866 51.5585C45.9067 51.5585 46.2129 51.4901 46.5755 51.3813C46.5997 55.4378 44.2997 59.2284 40.7023 60.8358C38.2086 61.5245 35.6183 61.875 33 61.875C17.0801 61.875 4.125 48.9199 4.125 33C4.125 17.0801 17.0801 4.125 33 4.125C48.9199 4.125 61.875 17.0801 61.875 33C61.875 37.7453 60.7471 42.2852 58.5194 46.4868C57.9877 47.4938 58.3744 48.7427 59.3774 49.2744C60.3886 49.8143 61.6333 49.4234 62.165 48.4204C64.6747 43.6831 66 38.3496 66 33C66 14.8041 51.1959 0 33 0Z" fill="#AEAFB0"/>
</svg>
