<svg width="58" height="58" viewBox="0 0 58 58" fill="none" xmlns="http://www.w3.org/2000/svg">
<path d="M0 28.9999C0 45.0163 12.9837 58 29.0001 58C45.0164 58 58.0001 45.0163 58.0001 28.9999C58.0001 12.9836 45.0164 -0.000118136 29.0001 -0.000118136C12.9837 -0.000118136 0 12.9836 0 28.9999" fill="url(#paint0_linear_16_62)"/>
<path d="M19.6303 31.1194L23.071 40.6427C23.071 40.6427 23.5011 41.5334 23.9619 41.5334C24.4227 41.5334 31.2734 34.4063 31.2734 34.4063L38.892 19.6912L19.7532 28.6615L19.6303 31.1194Z" fill="#C8DAEA"/>
<path d="M24.1922 33.5618L23.5316 40.5813C23.5316 40.5813 23.2551 42.7317 25.4055 40.5813C27.556 38.4309 29.6142 36.772 29.6142 36.772" fill="#A9C6D8"/>
<path d="M19.6923 31.4595L12.6155 29.1535C12.6155 29.1535 11.7708 28.8107 12.0422 28.0324C12.0982 27.8719 12.211 27.7355 12.5489 27.4998C14.1174 26.4069 41.5745 16.5378 41.5745 16.5378C41.5745 16.5378 42.3499 16.2768 42.8083 16.4503C43.0177 16.5297 43.1514 16.6194 43.2639 16.9467C43.305 17.0659 43.3285 17.3193 43.3254 17.5715C43.3229 17.7533 43.3008 17.9217 43.2846 18.1859C43.1174 20.8843 38.1137 41.0217 38.1137 41.0217C38.1137 41.0217 37.8144 42.2001 36.7416 42.2402C36.3503 42.2549 35.8755 42.1756 35.3078 41.6872C33.2029 39.8764 25.9265 34.9865 24.319 33.9113C24.2281 33.8508 24.2025 33.7719 24.187 33.695C24.1644 33.5819 24.2853 33.4409 24.2853 33.4409C24.2853 33.4409 36.9549 22.1788 37.2921 20.9971C37.3182 20.9055 37.2201 20.8603 37.0871 20.8998C36.2457 21.2095 21.6581 30.4207 20.0484 31.4382C19.9543 31.4976 19.6903 31.4593 19.6903 31.4593" fill="white"/>
<defs>
<linearGradient id="paint0_linear_16_62" x1="29.0001" y1="57.9998" x2="29.0001" y2="-0.000364019" gradientUnits="userSpaceOnUse">
<stop stop-color="#1D93D2"/>
<stop offset="1" stop-color="#38B0E3"/>
</linearGradient>
</defs>
</svg>
