<svg width="56" height="56" viewBox="0 0 56 56" fill="none" xmlns="http://www.w3.org/2000/svg">
<path fill-rule="evenodd" clip-rule="evenodd" d="M6.59894 1.78568C7.21133 1.17416 7.94668 0.699782 8.75626 0.393979C9.56584 0.088176 10.4312 -0.0420684 11.2949 0.0118768C12.1586 0.065822 13.001 0.302725 13.7662 0.706887C14.5315 1.11105 15.2021 1.67324 15.7337 2.3562L22.016 10.4276C23.1674 11.9081 23.5734 13.8367 23.1184 15.6568L21.204 23.3222C21.105 23.7192 21.1103 24.1351 21.2195 24.5294C21.3287 24.9237 21.5379 25.2832 21.827 25.5728L30.4262 34.1727C30.7161 34.4623 31.0761 34.6719 31.4711 34.7811C31.8661 34.8903 32.2826 34.8953 32.6801 34.7957L40.3414 32.8811C41.2395 32.6565 42.1769 32.6391 43.0828 32.8301C43.9886 33.0211 44.8392 33.4156 45.5702 33.9837L53.641 40.2629C56.5424 42.5205 56.8084 46.8082 54.2115 49.4019L50.5926 53.021C48.0026 55.6111 44.1318 56.7487 40.5234 55.4781C31.2878 52.2283 22.9024 46.9407 15.9891 40.0074C9.05688 33.0947 3.76966 24.7098 0.519632 15.4748C-0.747328 11.8696 0.390136 7.99496 2.98005 5.40484L6.59894 1.78568Z" fill="white"/>
</svg>
