<svg width="40" height="40" viewBox="0 0 40 40" fill="none" xmlns="http://www.w3.org/2000/svg">
<rect x="0.5" y="0.5" width="39" height="39" fill="#73767A" stroke="#AEAFB0"/>
<path d="M27.5664 24.6698C26.9742 25.0409 24.5649 25.1513 23.9818 24.7275C23.6619 24.4951 23.3694 24.2042 23.0915 23.9276C22.8974 23.734 22.6767 23.64 22.5098 23.43C22.3739 23.2579 22.2804 23.0551 22.1367 22.8859C21.8946 22.6011 21.5215 22.3589 21.2262 22.7068C20.7821 23.2298 21.2963 24.2579 20.7038 24.6489C20.5051 24.7802 20.3047 24.8182 20.0565 24.7994L19.5067 24.8245C19.1835 24.8308 18.6719 24.8336 18.3046 24.7673C17.8945 24.6935 17.5563 24.4694 17.186 24.3048C16.4824 23.9928 15.8119 23.5676 15.302 22.9785C13.9141 21.3744 12.0497 19.168 11.3255 17.1511C11.1762 16.7367 10.7832 15.9165 11.1561 15.5609C11.6632 15.1924 14.1533 15.088 14.5415 15.6584C14.6994 15.8897 14.7988 16.2294 14.9103 16.4917C15.0491 16.819 15.1245 17.1277 15.3416 17.4174C15.5337 17.6746 15.6758 17.9329 15.8246 18.2149C15.9917 18.5311 16.1492 18.8345 16.3524 19.1259C16.4902 19.3239 16.8546 19.7175 17.0848 19.7471C17.6468 19.819 17.6116 18.4528 17.5699 18.119C17.53 17.7977 17.5195 17.4568 17.53 17.1307C17.5392 16.8527 17.5643 16.461 17.3995 16.2339C17.1312 15.8635 16.5335 16.1408 16.4867 15.6431C16.5856 15.5018 16.5645 15.3764 17.224 15.1593C17.7431 14.9884 18.0785 14.9938 18.4209 15.0212C19.1193 15.0773 19.8596 14.8881 20.5334 15.1145C21.177 15.3314 21.0776 16.2463 21.056 16.7948C21.0272 17.5438 21.0579 18.2745 21.056 19.0342C21.0551 19.3804 21.0415 19.7168 21.4629 19.6889C21.8585 19.6624 21.8986 19.3298 22.0872 19.0551C22.35 18.6723 22.5906 18.2843 22.8581 17.9027C23.2183 17.3872 23.3268 16.808 23.6659 16.2798C23.7873 16.0906 23.8916 15.6778 24.0784 15.5285C24.2199 15.4158 24.4885 15.464 24.6596 15.464H25.0665C25.3782 15.4678 25.696 15.4722 26.0159 15.4835C26.4769 15.4994 26.9932 15.3993 27.4504 15.4638C29.4228 15.7423 24.9713 19.9625 25.2029 20.7154C25.3632 21.2354 26.3784 21.8179 26.745 22.2441C27.2336 22.8109 28.7314 23.9405 27.5664 24.6698Z" fill="#AEAFB0"/>
</svg>
